<svg viewBox="0 0 96 96" xmlns="http://www.w3.org/2000/svg" xmlns:xlink="http://www.w3.org/1999/xlink" id="Icons_PolaroidPictures" overflow="hidden"><path d="M43.196 8 42.138 18.193 48.303 16.909 48.544 14.588 85.347 18.409 80.391 66.152 64.41 64.493 65.694 70.659 85.738 72.74 91.935 13.06 43.196 8Z" fill="#FFFFFF"/><path d="M82.053 21.083 54.782 18.251 55.424 21.334 78.76 23.757 76.126 49.121 72.5 48.745 73.038 43.558C73.1726 42.2825 72.8017 41.0051 72.005 40 74.0948 38.265 74.3823 35.1644 72.6473 33.0746 71.3473 31.5088 69.2171 30.9055 67.289 31.557 67.0366 28.5399 64.3861 26.2987 61.369 26.5512 59.579 26.7009 57.9759 27.7182 57.078 29.274L59 38.5C59.1192 38.3389 59.2572 38.1925 59.411 38.064 60.4826 37.1933 62.0571 37.3561 62.9278 38.4277 63.3465 38.943 63.543 39.6037 63.474 40.264L63.238 42.535 63.238 42.535 62.7 47.727 60.882 47.538 61.523 50.62 78.802 52.42ZM64.3 32.31C64.157 33.6833 62.9277 34.6806 61.5545 34.5375 60.1812 34.3945 59.1839 33.1653 59.3269 31.792 59.4594 30.5201 60.5303 29.5533 61.809 29.551 61.8965 29.5509 61.9839 29.5552 62.071 29.564 63.4444 29.7062 64.4424 30.9349 64.3002 32.3082 64.3001 32.3088 64.3001 32.3094 64.3 32.31ZM70.058 43.248 69.52 48.435 65.683 48.035 66.222 42.846C66.3325 41.7867 67.2807 41.0175 68.34 41.128 69.3993 41.2385 70.1685 42.1867 70.058 43.246ZM70.766 36.427 70.766 36.427C70.7154 36.9363 70.4634 37.4044 70.066 37.727 69.2388 38.3984 68.024 38.2721 67.3526 37.4449 67.0296 37.0469 66.8783 36.5367 66.932 36.027 67.0348 35.0451 67.8617 34.2988 68.849 34.297 68.9158 34.2968 68.9826 34.3004 69.049 34.308 70.1071 34.4171 70.8764 35.3633 70.7673 36.4214 70.7672 36.4223 70.7671 36.4231 70.767 36.424Z" fill="#FFFFFF"/><path d="M16.177 87.948 3.948 29.207 51.92 19.221 64.149 77.961ZM11.046 33.859 20.828 80.851 57.052 73.31 47.269 26.318Z" fill="#FFFFFF"/><path d="M21.013 67.023 14.594 36.184 44.943 29.866 51.364 60.705ZM18.142 38.51 23.342 63.474 47.815 58.38 42.615 33.415Z" fill="#FFFFFF"/><path d="M35.07 58.391 34.035 57.9C32.988 57.4 23.775 52.847 22.59 47.2 22.1261 44.5488 23.4615 41.9084 25.872 40.711 27.7545 39.8477 29.9681 40.1661 31.531 41.525 32.4154 39.6513 34.3143 38.4682 36.386 38.5 39.0749 38.627 41.3596 40.5084 42 43.123 43.185 48.772 36.577 56.643 35.819 57.523ZM27.591 43.27C27.4388 43.3027 27.2909 43.3527 27.15 43.419 25.9993 44.0267 25.3506 45.2885 25.526 46.578 26.181 49.698 31.444 53.115 34.288 54.655 36.329 52.046 39.722 46.881 39.063 43.738 38.7063 42.4867 37.6049 41.5923 36.307 41.5 34.63 41.455 33.413 43.175 33.101 44.343L32.521 46.243 31.221 44.759C30.3381 43.6843 28.9743 43.1249 27.591 43.27Z" fill="#FFFFFF"/></svg>