<svg viewBox="0 0 96 96" xmlns="http://www.w3.org/2000/svg" xmlns:xlink="http://www.w3.org/1999/xlink" id="Icons_Crystals" overflow="hidden"><path d="M53.323 85 71.813 54.189 65.236 44.726 54.453 72.656 59.954 30.314 45.485 36.89 45.485 85 53.323 85Z"/><path d="M45.485 11 45.485 32.497 60.264 25.779 45.485 11Z"/><path d="M41.485 11 26.651 25.834 41.485 32.51 41.485 11Z"/><path d="M89.007 53.79 82.72 39.524 67.435 40.882 75.319 52.225 89.007 53.79Z"/><path d="M34.611 85 41.485 85 41.485 36.896 27.027 30.39 32.83 75.059 25.228 55.099 20.8 61.363 34.611 85Z"/><path d="M29.978 85 17.349 63.385 9.659 64.203 26.278 85 29.978 85Z"/><path d="M57.988 85 62.321 85 86.663 57.548 75.246 56.242 57.988 85Z"/><path d="M22.744 51.683 12.127 50.763 7.921 60.365 17.313 59.367 22.744 51.683Z"/></svg>