<svg viewBox="0 0 96 96" xmlns="http://www.w3.org/2000/svg" xmlns:xlink="http://www.w3.org/1999/xlink" id="Icons_CruiseShip_M" overflow="hidden"><g id="Icons"><path d="M43.5 47.7 44.5 47.7C45.2 47.7 45.8 48.3 45.8 49L45.8 50C45.8 50.7 45.2 51.3 44.5 51.3L43.5 51.3C42.8 51.3 42.2 50.7 42.2 50L42.2 49C42.3 48.3 42.8 47.7 43.5 47.7Z"/><path d="M27.5 47.7 28.5 47.7C29.2 47.7 29.8 48.3 29.8 49L29.8 50C29.8 50.7 29.2 51.3 28.5 51.3L27.5 51.3C26.8 51.3 26.2 50.7 26.2 50L26.2 49C26.3 48.3 26.8 47.7 27.5 47.7Z"/><path d="M19.5 47.7 20.5 47.7C21.2 47.7 21.8 48.3 21.8 49L21.8 50C21.8 50.7 21.2 51.3 20.5 51.3L19.5 51.3C18.8 51.3 18.2 50.7 18.2 50L18.2 49C18.3 48.3 18.8 47.7 19.5 47.7Z"/><path d="M35.5 47.7 36.5 47.7C37.2 47.7 37.8 48.3 37.8 49L37.8 50C37.8 50.7 37.2 51.3 36.5 51.3L35.5 51.3C34.8 51.3 34.2 50.7 34.2 50L34.2 49C34.3 48.3 34.8 47.7 35.5 47.7Z"/><path d="M59.5 47.7 60.5 47.7C61.2 47.7 61.8 48.3 61.8 49L61.8 50C61.8 50.7 61.2 51.3 60.5 51.3L59.5 51.3C58.8 51.3 58.2 50.7 58.2 50L58.2 49C58.3 48.3 58.8 47.7 59.5 47.7Z"/><path d="M51.5 47.7 52.5 47.7C53.2 47.7 53.8 48.3 53.8 49L53.8 50C53.8 50.7 53.2 51.3 52.5 51.3L51.5 51.3C50.8 51.3 50.2 50.7 50.2 50L50.2 49C50.3 48.3 50.8 47.7 51.5 47.7Z"/><path d="M67.5 47.7 68.5 47.7C69.2 47.7 69.8 48.3 69.8 49L69.8 50C69.8 50.7 69.2 51.3 68.5 51.3L67.5 51.3C66.8 51.3 66.2 50.7 66.2 50L66.2 49C66.3 48.3 66.8 47.7 67.5 47.7Z"/><path d="M14.3 67 17.6 67C18.1 67 18.4 66.6 18.4 66.2L18.4 62.9C18.4 62.4 18 62.1 17.6 62.1L14.3 62.1C13.8 62.1 13.5 62.5 13.5 62.9L13.5 66.2C13.5 66.6 13.9 67 14.3 67 14.3 67 14.3 67 14.3 67Z"/><path d="M36.3 67 39.6 67C40.1 67 40.4 66.6 40.4 66.2L40.4 62.9C40.4 62.4 40 62.1 39.6 62.1L36.3 62.1C35.8 62.1 35.5 62.5 35.5 62.9L35.5 66.2C35.5 66.6 35.9 67 36.3 67L36.3 67Z"/><path d="M25.3 67 28.6 67C29.1 67 29.4 66.6 29.4 66.2L29.4 62.9C29.4 62.4 29 62.1 28.6 62.1L25.3 62.1C24.8 62.1 24.5 62.5 24.5 62.9L24.5 66.2C24.5 66.6 24.9 67 25.3 67L25.3 67Z"/><path d="M69.3 67 72.6 67C73.1 67 73.4 66.6 73.4 66.2L73.4 62.9C73.4 62.4 73 62.1 72.6 62.1L69.3 62.1C68.8 62.1 68.5 62.5 68.5 62.9L68.5 66.2C68.5 66.6 68.9 67 69.3 67L69.3 67Z"/><path d="M47.3 67 50.6 67C51.1 67 51.4 66.6 51.4 66.2L51.4 62.9C51.4 62.4 51 62.1 50.6 62.1L47.3 62.1C46.8 62.1 46.5 62.5 46.5 62.9L46.5 66.2C46.5 66.6 46.9 67 47.3 67L47.3 67Z"/><path d="M58.3 67 61.6 67C62.1 67 62.4 66.6 62.4 66.2L62.4 62.9C62.4 62.4 62 62.1 61.6 62.1L58.3 62.1C57.8 62.1 57.5 62.5 57.5 62.9L57.5 66.2C57.5 66.6 57.9 67 58.3 67L58.3 67Z"/><path d="M6 73.2C6.1 74.2 6.8 74.9 7.8 75L75.5 75C76 75 76.4 74.8 76.8 74.5L93.5 58.1C94.2 57.4 94.2 56.3 93.5 55.6 93.2 55.3 92.7 55.1 92.2 55.1L82.6 55.1 76.2 44.3C75.7 43.4 74.9 43 74 43L72.5 43 68.1 36.4C67.5 35.6 66.6 35 65.6 35L43.5 35 38 20.3C37.7 19.5 36.9 18.9 36 18.9L25.5 18.9 25.5 34.9 17.5 34.9C15.8 34.9 14.5 36.2 14.5 37.9L14.5 42.9 14 42.9C12.6 42.9 11.5 44 11.5 45.4L11.5 55 3.8 55C2.8 55 2 55.8 2 56.8L6 73.2ZM36 21 36 21 37.6 25 27.5 25 27.5 21 36 21ZM38.4 27 41.4 35 27.5 35 27.5 27 38.4 27ZM65.7 37C66 37 66.4 37.2 66.5 37.5L70.9 44.1 71.5 45 74 45C74.2 45 74.3 45.1 74.4 45.2L80.2 55 13.5 54.9 13.5 45.4C13.5 45.1 13.7 44.9 14 44.9L16.5 44.9 16.5 37.9C16.5 37.3 16.9 36.9 17.5 36.9L65.7 36.9ZM7.9 72.7 4.1 57C4.1 57 4.1 57 4.1 57 4.1 57 4.1 57 4.1 57L91.6 57C91.6 57 91.6 57 91.6 57 91.6 57 91.6 57 91.6 57L75.4 73 8 73 7.9 72.7Z"/></g></svg>